<svg xmlns="http://www.w3.org/2000/svg" viewBox="0 0 320 96" fill="none">
  <rect x="8" y="8" width="80" height="80" rx="26" fill="#F7F0E6"/>
  <path d="M48 22c8.3 0 15.01 6.72 15.01 15.01 0 5.74-3.2 10.7-7.94 13.24v16.31l12.59 9.87c2.49 1.95 1.1 5.96-2.07 5.96H55.06L48 90.76l-7.06-8.37H30.41c-3.18 0-4.56-4.01-2.08-5.96l12.59-9.87V50.25A14.96 14.96 0 0 1 33 37.01C33 28.72 39.7 22 48 22Z" stroke="#A56D1E" stroke-width="3.5" stroke-linejoin="round"/>
  <path d="M37.5 42.22c2.88 2.69 6.66 4.03 10.5 4.03 3.84 0 7.62-1.34 10.5-4.03" stroke="#0C5C63" stroke-width="3.5" stroke-linecap="round"/>
  <circle cx="48" cy="36.91" r="3.25" fill="#0C5C63"/>
  <path d="M113.68 62V31.45h5.89l14.36 21.81h.26V31.45h6.56V62h-5.79L120.5 40.14h-.26V62h-6.56Zm35.43 0V31.45h10.98c2.13 0 3.97.4 5.53 1.2 1.56.79 2.76 1.92 3.61 3.38.85 1.46 1.27 3.17 1.27 5.13 0 1.97-.43 3.66-1.29 5.08-.86 1.41-2.08 2.5-3.67 3.26-1.58.76-3.46 1.14-5.63 1.14h-6.86V45.4h5.8c.94 0 1.72-.12 2.35-.37.63-.26 1.11-.65 1.44-1.18.34-.53.51-1.22.51-2.09 0-.88-.17-1.59-.51-2.13-.33-.55-.81-.96-1.44-1.22-.63-.28-1.42-.42-2.38-.42h-3.56V62h-6.15Zm19.68-13.91 7.59 13.91h-6.79l-7.45-13.91h6.65Zm20.45-16.64V62h-6.15V31.45h6.15Zm3.88 5.08v-5.08h25.09v5.08h-9.35V62h-6.15V36.53h-9.59Zm37.33-5.08h5.42l10.81 30.55h-6.59l-2.33-7.16h-11.26l-2.33 7.16h-6.6l10.88-30.55Zm5.53 18.68-3.84-11.77h-.24l-3.85 11.77h7.93Zm12.13-18.68h6.15v25.47h13.23V62h-19.38V31.45Z" fill="#182235"/>
</svg>
